<?xml version="1.0" standalone="no"?>
<!DOCTYPE svg PUBLIC "-//W3C//DTD SVG 20010904//EN"
 "http://www.w3.org/TR/2001/REC-SVG-20010904/DTD/svg10.dtd">
<svg version="1.0" xmlns="http://www.w3.org/2000/svg"
 width="1024.000000pt" height="1024.000000pt" viewBox="0 0 1024.000000 1024.000000"
 preserveAspectRatio="xMidYMid meet">

<g transform="translate(0.000000,1024.000000) scale(0.100000,-0.100000)"
fill="#000000" stroke="none">
<path d="M1417 9703 c-4 -3 -7 -30 -7 -58 l0 -52 133 -6 c72 -3 158 -13 191
-21 129 -34 248 -112 287 -188 11 -22 28 -79 37 -126 16 -80 17 -239 17 -1872
0 -1892 1 -1850 -46 -1997 -16 -48 -31 -71 -73 -111 -101 -96 -181 -123 -386
-131 l-155 -6 -3 -57 -3 -58 1001 0 1000 0 0 59 0 59 -147 5 c-159 5 -204 15
-310 69 -130 65 -173 127 -199 285 -14 83 -17 224 -21 906 -3 444 -2 824 1
843 l7 34 427 -2 427 -3 0 -1305 c0 -1484 4 -1415 -83 -1547 -96 -146 -242
-150 -336 -9 -20 30 -36 57 -36 61 0 20 -155 317 -187 359 -69 90 -179 132
-300 115 -72 -10 -107 -25 -176 -78 -123 -93 -152 -303 -64 -476 57 -114 204
-235 337 -278 118 -38 147 -42 315 -41 143 0 184 4 259 23 198 51 344 137 496
290 104 104 135 142 196 241 122 195 192 430 225 755 7 69 13 447 16 1003 l5
892 335 0 335 0 -5 -832 c-3 -704 -6 -848 -20 -927 -23 -138 -44 -187 -102
-246 -95 -94 -218 -135 -412 -135 -61 0 -118 -3 -127 -6 -12 -5 -16 -20 -16
-60 l0 -54 1000 0 1000 0 0 60 0 60 -112 0 c-136 0 -221 17 -321 63 -92 43
-149 94 -180 160 -53 114 -52 92 -52 2022 0 1686 1 1795 18 1870 33 147 81
210 203 267 97 45 156 58 307 65 l137 6 0 52 c0 38 -4 55 -15 59 -20 7 -1948
8 -1969 0 -12 -5 -16 -19 -16 -59 l0 -52 138 -6 c75 -4 164 -14 197 -23 128
-34 251 -119 289 -199 26 -54 44 -190 48 -350 l3 -140 -1000 -5 -1000 -5 -3
-57 -3 -58 85 0 c183 0 322 -35 434 -110 140 -94 150 -140 159 -698 l6 -412
-434 2 -434 3 -3 635 c-4 836 10 1108 62 1208 39 75 156 154 281 188 27 8 114
17 193 21 l143 6 -3 56 -3 56 -991 3 c-545 1 -994 -1 -997 -5z m3511 -1565 l2
-608 -335 0 -335 0 -2 213 c-7 518 8 692 65 804 18 35 103 115 143 136 90 45
205 66 359 63 l100 -1 3 -607z"/>
<path d="M6275 9050 c-3 -5 5 -29 19 -52 103 -178 256 -494 300 -621 8 -23 31
-87 51 -142 85 -233 176 -607 210 -855 34 -248 47 -746 25 -958 -57 -553 -179
-980 -410 -1437 -167 -330 -353 -598 -592 -850 -31 -33 -67 -71 -80 -85 -41
-45 -249 -230 -306 -273 -125 -95 -217 -160 -295 -208 -101 -63 -94 -57 -76
-74 14 -14 25 -9 102 39 440 276 821 661 1114 1126 495 785 697 1776 557 2740
-32 221 -97 513 -155 692 -26 84 -23 95 7 23 44 -104 141 -405 173 -535 55
-227 77 -351 113 -640 17 -139 17 -700 0 -830 -27 -203 -34 -249 -59 -374
-195 -1010 -787 -1902 -1603 -2416 -105 -66 -102 -63 -95 -83 9 -22 23 -15
145 66 421 281 761 624 1051 1062 51 77 57 87 141 239 55 99 127 248 159 328
11 28 28 70 38 92 31 69 118 334 149 456 53 206 82 361 109 580 25 205 25 743
0 950 -34 278 -96 575 -166 804 -52 167 -34 140 39 -59 292 -793 345 -1664
150 -2465 -32 -129 -66 -250 -81 -285 -4 -11 -15 -40 -23 -65 -45 -137 -158
-401 -225 -524 -89 -163 -108 -196 -178 -304 -227 -350 -545 -687 -873 -927
-15 -11 -84 -58 -153 -104 -118 -78 -141 -101 -118 -115 12 -8 340 211 381
254 3 3 28 23 55 44 47 37 199 173 269 241 126 121 312 348 440 538 47 70 86
129 86 131 0 2 17 33 38 67 143 236 268 524 372 854 187 600 219 1354 84 2023
-31 154 -75 333 -110 443 -30 95 -27 114 6 32 324 -832 390 -1744 183 -2568
-13 -55 -27 -111 -30 -125 -2 -14 -8 -34 -12 -45 -5 -11 -23 -65 -41 -120 -94
-294 -258 -634 -427 -890 -291 -440 -611 -760 -1028 -1030 -66 -42 -121 -78
-123 -80 -5 -4 10 -35 17 -35 20 0 322 212 403 282 14 13 46 39 70 58 57 46
178 162 298 285 298 306 537 674 724 1113 138 327 242 731 285 1107 40 346 32
747 -20 1090 -38 254 -100 518 -174 750 -21 64 23 -33 66 -147 145 -385 235
-821 259 -1263 35 -634 -73 -1257 -317 -1828 -70 -163 -269 -529 -321 -590 -8
-9 -20 -26 -26 -36 -6 -11 -36 -54 -68 -98 -178 -247 -438 -513 -706 -721 -55
-43 -316 -218 -334 -224 -11 -4 -11 -7 1 -21 12 -15 15 -15 45 0 49 25 170
109 296 203 634 478 1098 1166 1324 1960 229 805 205 1669 -69 2525 -5 16 -4
17 3 5 6 -8 35 -80 65 -161 272 -724 342 -1544 196 -2289 -48 -246 -143 -568
-214 -725 -7 -16 -22 -53 -34 -81 -23 -60 -113 -244 -160 -328 -168 -299 -353
-548 -585 -785 -232 -236 -357 -335 -714 -566 -6 -4 11 -35 19 -35 19 0 292
191 415 291 151 121 417 384 526 519 321 399 557 855 701 1350 25 85 47 166
50 180 3 14 14 70 26 125 61 287 85 524 85 850 -1 372 -29 622 -110 975 -30
127 -78 307 -109 406 -6 17 -5 17 5 2 20 -32 120 -318 164 -472 68 -232 115
-478 148 -771 17 -149 16 -668 -1 -815 -65 -573 -200 -1020 -449 -1485 -60
-113 -58 -109 -173 -284 -219 -333 -470 -606 -784 -852 -82 -64 -239 -173
-307 -213 -46 -27 -59 -48 -38 -61 6 -4 56 24 113 61 887 579 1469 1491 1646
2579 42 256 54 442 48 745 -5 298 -18 439 -63 690 -28 154 -87 399 -129 532
-14 45 -24 83 -21 85 11 11 136 -352 186 -542 33 -121 77 -327 91 -420 35
-239 59 -531 59 -716 0 -147 -27 -463 -50 -594 -42 -230 -56 -296 -85 -410
-236 -901 -775 -1668 -1511 -2149 -142 -93 -138 -90 -131 -110 8 -21 18 -15
172 87 462 310 869 753 1144 1247 67 120 167 329 211 441 256 644 344 1367
254 2067 -31 240 -83 486 -151 711 -18 62 -32 115 -30 118 6 6 69 -163 121
-327 149 -462 213 -909 203 -1400 -10 -423 -38 -611 -167 -1095 -19 -74 -113
-326 -163 -439 -47 -107 -175 -354 -208 -402 -16 -24 -29 -45 -29 -48 0 -13
-185 -278 -252 -361 -250 -310 -541 -574 -844 -766 -123 -77 -120 -75 -105
-93 11 -13 21 -9 78 25 310 190 640 483 882 784 40 50 78 97 86 106 7 9 43 61
81 115 354 516 579 1119 658 1765 65 530 27 1072 -114 1614 -22 83 -48 177
-60 209 -31 90 -17 78 20 -16 430 -1113 390 -2344 -110 -3344 -44 -87 -88
-172 -98 -189 -9 -16 -31 -52 -47 -80 -133 -226 -408 -573 -586 -740 -163
-152 -343 -294 -516 -408 -114 -74 -134 -93 -117 -110 15 -15 221 122 424 282
132 104 457 433 564 571 87 112 249 350 299 440 153 275 230 448 322 725 266
801 273 1703 20 2545 -37 123 -38 128 -26 109 19 -30 102 -263 145 -408 107
-358 153 -647 181 -1135 6 -116 -9 -409 -31 -591 -14 -117 -69 -415 -93 -505
-51 -191 -82 -286 -154 -470 -151 -386 -376 -762 -641 -1070 -70 -80 -338
-342 -421 -411 -95 -78 -267 -202 -372 -270 -43 -26 -63 -46 -63 -59 0 -11 3
-20 7 -20 17 0 330 217 433 301 152 123 401 374 527 530 85 105 255 353 326
474 124 214 260 532 357 840 57 182 115 482 145 748 18 163 21 661 5 801 -44
377 -99 658 -181 915 -17 51 -28 95 -26 97 4 5 72 -169 113 -288 33 -96 107
-368 133 -488 99 -461 118 -988 51 -1470 -18 -127 -60 -348 -80 -415 -5 -16
-18 -64 -30 -105 -207 -733 -631 -1391 -1200 -1860 -97 -81 -326 -242 -405
-286 -28 -15 -32 -44 -7 -44 19 0 274 165 338 219 17 14 51 42 75 61 277 221
542 513 745 820 102 155 134 211 239 425 106 216 202 468 253 660 6 22 15 58
21 80 6 22 18 74 26 116 8 42 17 83 20 90 2 8 12 55 20 104 92 533 81 1115
-31 1622 -44 202 -55 244 -101 393 -80 258 -159 449 -301 730 -57 113 -116
221 -131 240 -15 19 -53 82 -86 140 -32 58 -66 114 -76 125 -10 11 -39 61 -65
110 -25 50 -61 110 -78 135 -18 25 -46 70 -63 100 -16 30 -40 73 -52 95 -13
22 -36 57 -52 77 -16 20 -29 40 -29 43 0 11 -123 220 -131 223 -4 2 -22 31
-39 65 -46 89 -100 178 -125 207 -11 14 -32 48 -45 75 -13 28 -39 74 -57 103
-18 29 -33 57 -33 62 0 5 -6 13 -13 17 -14 8 -36 45 -102 168 -20 39 -42 75
-49 80 -11 10 -33 45 -98 165 -17 30 -43 73 -58 95 -15 22 -56 90 -90 150 -35
61 -66 112 -70 115 -4 3 -16 21 -27 40 -112 201 -120 213 -142 241 -12 15 -93
157 -123 217 -12 23 -32 29 -43 12z"/>
<path d="M2265 2463 c-31 -8 -84 -51 -100 -82 -15 -31 -23 -60 -33 -136 l-7
-50 -67 -3 -68 -3 0 54 c0 60 24 97 64 97 19 0 26 8 36 45 18 64 10 75 -50 75
-114 0 -184 -73 -191 -200 -3 -53 -16 -70 -49 -70 -29 0 -30 -1 -30 -50 l0
-50 35 0 35 0 1 -77 c1 -43 0 -145 -1 -228 -1 -82 1 -163 5 -178 7 -27 8 -28
74 -25 l66 3 3 253 2 252 70 0 70 0 2 -252 3 -253 67 -3 68 -3 2 253 3 253 53
3 52 3 0 49 0 49 -52 3 c-47 3 -53 6 -56 26 -4 27 14 78 36 105 9 10 29 17 52
17 l38 0 5 58 c2 31 3 59 1 61 -7 7 -117 10 -139 4z"/>
<path d="M3747 2453 c-4 -3 -7 -199 -7 -433 0 -361 2 -429 14 -440 10 -8 33
-9 71 -5 48 6 56 11 61 32 4 13 4 201 0 416 -3 216 -6 402 -6 415 0 20 -4 22
-63 22 -35 0 -67 -3 -70 -7z"/>
<path d="M4270 2310 c0 -82 -2 -150 -5 -150 -3 0 -15 9 -27 20 -46 43 -129 28
-177 -32 -94 -118 -91 -437 5 -544 55 -61 143 -58 198 7 l18 22 14 -31 c12
-29 17 -32 56 -32 24 0 49 4 56 8 10 7 12 102 10 443 l-3 434 -72 3 -73 3 0
-151z m-16 -262 c13 -18 16 -52 16 -168 0 -160 -9 -190 -56 -190 -85 0 -115
235 -46 358 17 30 65 30 86 0z"/>
<path d="M4566 2435 c-20 -18 -26 -34 -26 -65 0 -31 6 -47 26 -65 33 -30 47
-31 85 -4 25 18 29 27 29 68 0 81 -60 116 -114 66z"/>
<path d="M1056 2424 c-3 -9 -6 -160 -6 -335 0 -224 -3 -327 -12 -342 -17 -34
-39 -46 -80 -47 -36 0 -37 -1 -44 -45 -3 -25 -3 -56 0 -70 6 -23 11 -25 65
-25 99 0 156 35 192 118 17 40 19 73 19 403 l0 359 -64 0 c-49 0 -65 -4 -70
-16z"/>
<path d="M2650 2010 l0 -430 70 0 70 0 2 178 3 177 82 3 83 3 2 -178 3 -178
67 -3 66 -3 4 138 c2 76 1 270 0 431 l-4 292 -57 0 c-31 0 -62 -5 -69 -12 -8
-8 -12 -63 -12 -180 l0 -169 -82 3 -83 3 -3 178 -2 177 -70 0 -70 0 0 -430z"/>
<path d="M1453 2189 c-57 -28 -96 -75 -123 -146 -18 -47 -22 -79 -23 -173 0
-102 3 -121 25 -171 53 -116 175 -165 308 -125 l45 13 -3 49 c-5 60 -11 68
-46 54 -39 -14 -102 -12 -135 4 -30 16 -65 82 -59 112 3 17 16 19 138 24 l135
5 3 45 c4 52 -14 173 -31 210 -24 51 -59 89 -98 104 -53 21 -86 20 -136 -5z
m111 -121 c14 -23 19 -55 17 -111 l-1 -28 -67 3 c-65 3 -68 4 -71 30 -2 14 7
49 19 77 20 47 24 51 55 51 24 0 38 -7 48 -22z"/>
<path d="M3365 2191 c-45 -20 -99 -76 -118 -124 -58 -138 -33 -365 48 -450 78
-82 220 -72 286 21 54 76 78 210 59 327 -19 120 -68 199 -142 230 -49 20 -84
19 -133 -4z m110 -146 c17 -34 20 -60 20 -165 0 -141 -12 -186 -52 -196 -34
-9 -63 22 -74 77 -10 56 -11 181 0 236 19 98 70 121 106 48z"/>
<path d="M5013 2191 c-23 -11 -48 -29 -55 -40 -17 -28 -24 -26 -31 9 -6 29 -8
30 -67 30 l-60 0 2 -302 3 -303 70 0 70 0 5 215 c4 184 8 220 23 243 12 19 26
27 46 27 53 0 56 -13 59 -261 2 -163 7 -229 15 -232 7 -2 40 -2 75 1 l62 4 0
214 c0 285 -19 362 -97 399 -41 20 -69 19 -120 -4z"/>
<path d="M5449 2187 c-36 -19 -50 -36 -79 -92 l-35 -68 0 -146 c0 -141 1 -148
28 -200 43 -80 69 -101 132 -101 38 0 95 24 95 40 0 6 5 10 10 10 13 0 13 -64
0 -111 -16 -56 -51 -83 -107 -81 -27 1 -60 4 -74 7 -23 5 -27 2 -37 -33 -20
-66 -16 -78 27 -90 49 -15 133 -15 182 -1 47 15 104 61 126 102 29 57 43 218
43 505 l0 272 -49 0 c-65 0 -81 -7 -81 -36 0 -27 -15 -32 -24 -9 -7 20 -66 55
-92 55 -11 0 -41 -10 -65 -23z m149 -162 c9 -27 12 -80 10 -161 -3 -103 -6
-125 -22 -143 -11 -12 -29 -21 -41 -21 -48 0 -75 69 -75 191 0 122 29 182 84
177 26 -3 33 -9 44 -43z"/>
<path d="M4540 1885 l0 -305 70 0 70 0 0 305 0 305 -70 0 -70 0 0 -305z"/>
<path d="M7713 1176 c-90 -50 -127 -159 -88 -254 9 -21 51 -70 97 -113 78 -74
81 -78 82 -123 1 -64 -27 -88 -99 -83 -27 3 -60 8 -72 12 -22 7 -23 5 -23 -43
0 -63 13 -72 103 -72 98 0 161 42 192 129 36 104 1 189 -112 272 -66 49 -91
96 -73 139 15 37 58 54 114 46 l43 -7 7 43 c6 34 4 45 -10 55 -22 16 -131 15
-161 -1z"/>
<path d="M8096 1173 c-4 -9 -29 -129 -56 -267 -27 -138 -54 -270 -60 -294 -5
-23 -10 -58 -10 -78 l0 -35 47 3 46 3 14 65 c18 93 16 90 77 90 63 0 69 -6 81
-84 10 -73 12 -76 61 -76 l44 0 0 44 c0 25 -4 66 -10 93 -17 87 -100 541 -100
550 0 1 -29 3 -64 3 -50 0 -65 -4 -70 -17z m79 -160 c3 -27 10 -77 15 -113 5
-36 11 -83 12 -105 l3 -40 -49 -3 -49 -3 6 53 c4 29 9 69 12 88 22 143 28 170
35 170 5 0 12 -21 15 -47z"/>
<path d="M8453 1183 c-10 -4 -13 -82 -13 -344 l0 -340 53 3 52 3 3 138 c3 134
3 137 25 137 51 -1 67 -31 87 -165 7 -49 17 -96 23 -102 5 -8 31 -13 59 -13
42 0 49 3 45 18 -3 9 -11 49 -17 87 -20 115 -38 170 -64 194 l-24 23 37 37
c45 45 65 111 55 180 -15 106 -81 151 -221 150 -49 0 -94 -3 -100 -6z m182
-105 c28 -25 42 -80 31 -122 -11 -42 -54 -86 -87 -86 l-29 0 0 115 0 115 29 0
c17 0 42 -10 56 -22z"/>
<path d="M8882 848 l3 -343 128 -3 c140 -3 129 -8 132 66 l1 32 -73 0 c-40 0
-75 5 -78 11 -4 6 -8 137 -9 292 l-1 282 -53 3 -52 3 2 -343z m223 -307 c3 -6
-3 -15 -14 -21 -21 -11 -37 2 -26 20 8 13 32 13 40 1z"/>
</g>
</svg>
